G04*
G04 #@! TF.GenerationSoftware,Altium Limited,Altium Designer,24.8.2 (39)*
G04*
G04 Layer_Color=16711935*
%FSTAX24Y24*%
%MOIN*%
G70*
G04*
G04 #@! TF.SameCoordinates,E2E89361-0BB4-4F2D-B907-9D5CD4EE4A11*
G04*
G04*
G04 #@! TF.FilePolarity,Negative*
G04*
G01*
G75*
%ADD55R,0.0592X0.0671*%
%ADD56O,0.0592X0.0671*%
%ADD57C,0.0800*%
%ADD58C,0.0671*%
G04:AMPARAMS|DCode=59|XSize=86.7mil|YSize=86.7mil|CornerRadius=0mil|HoleSize=0mil|Usage=FLASHONLY|Rotation=0.000|XOffset=0mil|YOffset=0mil|HoleType=Round|Shape=Octagon|*
%AMOCTAGOND59*
4,1,8,0.0434,-0.0217,0.0434,0.0217,0.0217,0.0434,-0.0217,0.0434,-0.0434,0.0217,-0.0434,-0.0217,-0.0217,-0.0434,0.0217,-0.0434,0.0434,-0.0217,0.0*
%
%ADD59OCTAGOND59*%

%ADD60C,0.0867*%
%ADD61O,0.0671X0.0592*%
%ADD62R,0.0671X0.0592*%
%ADD63C,0.2049*%
%ADD64C,0.1535*%
%ADD65O,0.0906X0.0512*%
G04:AMPARAMS|DCode=66|XSize=86.7mil|YSize=86.7mil|CornerRadius=0mil|HoleSize=0mil|Usage=FLASHONLY|Rotation=270.000|XOffset=0mil|YOffset=0mil|HoleType=Round|Shape=Octagon|*
%AMOCTAGOND66*
4,1,8,-0.0217,-0.0434,0.0217,-0.0434,0.0434,-0.0217,0.0434,0.0217,0.0217,0.0434,-0.0217,0.0434,-0.0434,0.0217,-0.0434,-0.0217,-0.0217,-0.0434,0.0*
%
%ADD66OCTAGOND66*%

%ADD91O,0.0945X0.0630*%
D55*
X009702Y025876D02*
D03*
D56*
X008702D02*
D03*
D57*
X0296Y014D02*
D03*
Y013D02*
D03*
Y012D02*
D03*
Y011D02*
D03*
Y01D02*
D03*
Y009D02*
D03*
Y008D02*
D03*
Y007D02*
D03*
X0246D02*
D03*
Y008D02*
D03*
Y009D02*
D03*
Y01D02*
D03*
Y011D02*
D03*
Y012D02*
D03*
Y013D02*
D03*
Y014D02*
D03*
X020891Y01399D02*
D03*
Y01299D02*
D03*
Y01199D02*
D03*
Y01099D02*
D03*
Y00999D02*
D03*
Y00899D02*
D03*
Y00799D02*
D03*
Y00699D02*
D03*
X015891D02*
D03*
Y00799D02*
D03*
Y00899D02*
D03*
Y00999D02*
D03*
Y01099D02*
D03*
Y01199D02*
D03*
Y01299D02*
D03*
Y01399D02*
D03*
X00711Y01395D02*
D03*
Y01295D02*
D03*
Y01195D02*
D03*
Y01095D02*
D03*
Y00995D02*
D03*
Y00895D02*
D03*
Y00795D02*
D03*
Y00695D02*
D03*
X01211D02*
D03*
Y00795D02*
D03*
Y00895D02*
D03*
Y00995D02*
D03*
Y01095D02*
D03*
Y01195D02*
D03*
Y01295D02*
D03*
Y01395D02*
D03*
D58*
X011457Y032835D02*
D03*
Y034173D02*
D03*
X027769Y01265D02*
D03*
X026431D02*
D03*
X019061D02*
D03*
X017722D02*
D03*
X010312D02*
D03*
X008974D02*
D03*
X027638Y031823D02*
D03*
Y033161D02*
D03*
D59*
X032283Y016063D02*
D03*
Y012945D02*
D03*
X032283Y019189D02*
D03*
X003071Y010871D02*
D03*
Y015929D02*
D03*
Y020992D02*
D03*
X032283Y023386D02*
D03*
D60*
Y015063D02*
D03*
Y011945D02*
D03*
X032283Y018189D02*
D03*
X003071Y011871D02*
D03*
Y012871D02*
D03*
Y013871D02*
D03*
Y018929D02*
D03*
Y017929D02*
D03*
Y016929D02*
D03*
Y023992D02*
D03*
Y022992D02*
D03*
Y021992D02*
D03*
X00858Y00315D02*
D03*
X00958D02*
D03*
X01058D02*
D03*
X016891D02*
D03*
X017891D02*
D03*
X018891D02*
D03*
X032283Y022386D02*
D03*
Y021386D02*
D03*
X027253Y00315D02*
D03*
X026253D02*
D03*
X025253D02*
D03*
D61*
X032898Y025484D02*
D03*
D62*
Y026484D02*
D03*
D63*
X001911Y001912D02*
D03*
X033521Y001912D02*
D03*
X03359Y033583D02*
D03*
X001912Y033521D02*
D03*
D64*
X006339Y030118D02*
D03*
Y027284D02*
D03*
D65*
X003976Y031358D02*
D03*
Y026043D02*
D03*
D66*
X01158Y00315D02*
D03*
X019891D02*
D03*
X028253D02*
D03*
D91*
X011621Y021681D02*
D03*
Y022681D02*
D03*
Y023681D02*
D03*
Y024681D02*
D03*
M02*
