G04*
G04 #@! TF.GenerationSoftware,Altium Limited,Altium Designer,24.8.2 (39)*
G04*
G04 Layer_Color=8421504*
%FSTAX24Y24*%
%MOIN*%
G70*
G04*
G04 #@! TF.SameCoordinates,E2E89361-0BB4-4F2D-B907-9D5CD4EE4A11*
G04*
G04*
G04 #@! TF.FilePolarity,Positive*
G04*
G01*
G75*
%ADD21O,0.0106X0.0591*%
%ADD22O,0.0591X0.0106*%
G04:AMPARAMS|DCode=23|XSize=31.5mil|YSize=39.4mil|CornerRadius=5.9mil|HoleSize=0mil|Usage=FLASHONLY|Rotation=0.000|XOffset=0mil|YOffset=0mil|HoleType=Round|Shape=RoundedRectangle|*
%AMROUNDEDRECTD23*
21,1,0.0315,0.0276,0,0,0.0*
21,1,0.0197,0.0394,0,0,0.0*
1,1,0.0118,0.0098,-0.0138*
1,1,0.0118,-0.0098,-0.0138*
1,1,0.0118,-0.0098,0.0138*
1,1,0.0118,0.0098,0.0138*
%
%ADD23ROUNDEDRECTD23*%
G04:AMPARAMS|DCode=24|XSize=31.5mil|YSize=39.4mil|CornerRadius=5.9mil|HoleSize=0mil|Usage=FLASHONLY|Rotation=270.000|XOffset=0mil|YOffset=0mil|HoleType=Round|Shape=RoundedRectangle|*
%AMROUNDEDRECTD24*
21,1,0.0315,0.0276,0,0,270.0*
21,1,0.0197,0.0394,0,0,270.0*
1,1,0.0118,-0.0138,-0.0098*
1,1,0.0118,-0.0138,0.0098*
1,1,0.0118,0.0138,0.0098*
1,1,0.0118,0.0138,-0.0098*
%
%ADD24ROUNDEDRECTD24*%
G04:AMPARAMS|DCode=25|XSize=39.4mil|YSize=47.2mil|CornerRadius=9.8mil|HoleSize=0mil|Usage=FLASHONLY|Rotation=90.000|XOffset=0mil|YOffset=0mil|HoleType=Round|Shape=RoundedRectangle|*
%AMROUNDEDRECTD25*
21,1,0.0394,0.0276,0,0,90.0*
21,1,0.0197,0.0472,0,0,90.0*
1,1,0.0197,0.0138,0.0098*
1,1,0.0197,0.0138,-0.0098*
1,1,0.0197,-0.0138,-0.0098*
1,1,0.0197,-0.0138,0.0098*
%
%ADD25ROUNDEDRECTD25*%
%ADD26R,0.0472X0.0394*%
G04:AMPARAMS|DCode=27|XSize=63mil|YSize=86.6mil|CornerRadius=15.7mil|HoleSize=0mil|Usage=FLASHONLY|Rotation=180.000|XOffset=0mil|YOffset=0mil|HoleType=Round|Shape=RoundedRectangle|*
%AMROUNDEDRECTD27*
21,1,0.0630,0.0551,0,0,180.0*
21,1,0.0315,0.0866,0,0,180.0*
1,1,0.0315,-0.0157,0.0276*
1,1,0.0315,0.0157,0.0276*
1,1,0.0315,0.0157,-0.0276*
1,1,0.0315,-0.0157,-0.0276*
%
%ADD27ROUNDEDRECTD27*%
%ADD28R,0.0630X0.0866*%
%ADD29R,0.0394X0.0945*%
%ADD30R,0.1299X0.0945*%
%ADD31R,0.1181X0.1969*%
%ADD32R,0.0394X0.0472*%
G04:AMPARAMS|DCode=33|XSize=39.4mil|YSize=47.2mil|CornerRadius=9.8mil|HoleSize=0mil|Usage=FLASHONLY|Rotation=0.000|XOffset=0mil|YOffset=0mil|HoleType=Round|Shape=RoundedRectangle|*
%AMROUNDEDRECTD33*
21,1,0.0394,0.0276,0,0,0.0*
21,1,0.0197,0.0472,0,0,0.0*
1,1,0.0197,0.0098,-0.0138*
1,1,0.0197,-0.0098,-0.0138*
1,1,0.0197,-0.0098,0.0138*
1,1,0.0197,0.0098,0.0138*
%
%ADD33ROUNDEDRECTD33*%
G04:AMPARAMS|DCode=34|XSize=63mil|YSize=86.6mil|CornerRadius=15.7mil|HoleSize=0mil|Usage=FLASHONLY|Rotation=90.000|XOffset=0mil|YOffset=0mil|HoleType=Round|Shape=RoundedRectangle|*
%AMROUNDEDRECTD34*
21,1,0.0630,0.0551,0,0,90.0*
21,1,0.0315,0.0866,0,0,90.0*
1,1,0.0315,0.0276,0.0157*
1,1,0.0315,0.0276,-0.0157*
1,1,0.0315,-0.0276,-0.0157*
1,1,0.0315,-0.0276,0.0157*
%
%ADD34ROUNDEDRECTD34*%
%ADD35R,0.0866X0.0630*%
%ADD36R,0.4197X0.3299*%
%ADD37R,0.0400X0.1400*%
%ADD38R,0.0472X0.0709*%
D21*
X016767Y019458D02*
D03*
X016964D02*
D03*
X017161D02*
D03*
X017358D02*
D03*
X017555D02*
D03*
X017752D02*
D03*
X017948D02*
D03*
X018145D02*
D03*
X018342D02*
D03*
X018539D02*
D03*
X018736D02*
D03*
X018933D02*
D03*
Y022804D02*
D03*
X018736D02*
D03*
X018539D02*
D03*
X018342D02*
D03*
X018145D02*
D03*
X017948D02*
D03*
X017752D02*
D03*
X017555D02*
D03*
X017358D02*
D03*
X017161D02*
D03*
X016964D02*
D03*
X016767D02*
D03*
D22*
X019523Y020048D02*
D03*
X019523Y020245D02*
D03*
X019523Y020442D02*
D03*
X019523Y020639D02*
D03*
X019523Y020836D02*
D03*
X019523Y021033D02*
D03*
X019523Y021229D02*
D03*
X019523Y021426D02*
D03*
X019523Y021623D02*
D03*
X019523Y02182D02*
D03*
X019523Y022017D02*
D03*
X019523Y022214D02*
D03*
X016177Y022214D02*
D03*
X016177Y022017D02*
D03*
X016177Y02182D02*
D03*
X016177Y021623D02*
D03*
X016177Y021426D02*
D03*
X016177Y02123D02*
D03*
X016177Y021033D02*
D03*
X016177Y020836D02*
D03*
X016177Y020639D02*
D03*
X016177Y020442D02*
D03*
X016177Y020245D02*
D03*
X016177Y020048D02*
D03*
D23*
X005198Y017929D02*
D03*
X004411D02*
D03*
X005198Y018929D02*
D03*
X004411D02*
D03*
X005198Y023992D02*
D03*
X004411D02*
D03*
X005198Y022992D02*
D03*
X004411D02*
D03*
X005198Y012859D02*
D03*
X004411D02*
D03*
X005198Y013871D02*
D03*
X004411D02*
D03*
X014047Y024905D02*
D03*
X01326D02*
D03*
X014047Y0241D02*
D03*
X01326D02*
D03*
X022791Y009D02*
D03*
X023578D02*
D03*
X022791Y01099D02*
D03*
X023578D02*
D03*
X022791Y01D02*
D03*
X023578D02*
D03*
X014Y01099D02*
D03*
X014787D02*
D03*
X014Y009993D02*
D03*
X014787D02*
D03*
X014Y008993D02*
D03*
X014787D02*
D03*
X00508Y01095D02*
D03*
X005867D02*
D03*
X00508Y00995D02*
D03*
X005867D02*
D03*
X00508Y00895D02*
D03*
X005867D02*
D03*
X007008Y033268D02*
D03*
X007795D02*
D03*
D24*
X03095Y014276D02*
D03*
Y015063D02*
D03*
X032283Y009206D02*
D03*
Y009994D02*
D03*
X03095Y017402D02*
D03*
Y018189D02*
D03*
X01825Y026337D02*
D03*
Y027125D02*
D03*
X017377Y026337D02*
D03*
Y027125D02*
D03*
X0203Y024106D02*
D03*
Y024894D02*
D03*
X015014Y024126D02*
D03*
Y024914D02*
D03*
X028917Y019199D02*
D03*
Y018412D02*
D03*
X025588Y019199D02*
D03*
Y018411D02*
D03*
X027302Y019199D02*
D03*
Y018411D02*
D03*
X02387Y019199D02*
D03*
Y018411D02*
D03*
X026547Y029016D02*
D03*
Y029803D02*
D03*
D25*
X018197Y018226D02*
D03*
Y017439D02*
D03*
X01732Y018226D02*
D03*
Y017439D02*
D03*
X015939Y024126D02*
D03*
Y024914D02*
D03*
X017377Y024097D02*
D03*
X01909D02*
D03*
Y024884D02*
D03*
X034915Y026457D02*
D03*
Y025669D02*
D03*
X02878Y029803D02*
D03*
Y029016D02*
D03*
X027933Y029803D02*
D03*
Y029016D02*
D03*
X029985Y032098D02*
D03*
Y032886D02*
D03*
X025642Y029803D02*
D03*
X030886Y032098D02*
D03*
Y032886D02*
D03*
X013661Y033083D02*
D03*
Y03387D02*
D03*
X031772Y032098D02*
D03*
Y032886D02*
D03*
X018255Y024097D02*
D03*
D26*
X017377Y024884D02*
D03*
X025642Y029016D02*
D03*
X018255Y024884D02*
D03*
D27*
X034646Y030669D02*
D03*
X033268Y028938D02*
D03*
D28*
X034646Y028937D02*
D03*
X033268Y030671D02*
D03*
D29*
X02998Y02819D02*
D03*
X030886D02*
D03*
X031791D02*
D03*
D30*
X030886Y030474D02*
D03*
D31*
X024864Y032492D02*
D03*
X020139D02*
D03*
D32*
X007008Y032402D02*
D03*
D33*
X007795D02*
D03*
X009725Y023652D02*
D03*
X008938D02*
D03*
D34*
X023433Y029096D02*
D03*
X007948Y028516D02*
D03*
X009648Y030065D02*
D03*
X008093Y034409D02*
D03*
D35*
X0217Y029096D02*
D03*
X009681Y028516D02*
D03*
X007916Y030065D02*
D03*
X006361Y034409D02*
D03*
D36*
X017002Y033405D02*
D03*
D37*
X018342Y029348D02*
D03*
X017672D02*
D03*
X017002D02*
D03*
X016332D02*
D03*
X015662D02*
D03*
D38*
X025588Y020127D02*
D03*
Y022883D02*
D03*
X023884Y020132D02*
D03*
Y022888D02*
D03*
X028917Y020127D02*
D03*
Y022883D02*
D03*
X027255Y020127D02*
D03*
Y022883D02*
D03*
M02*
