G04*
G04 #@! TF.GenerationSoftware,Altium Limited,Altium Designer,24.8.2 (39)*
G04*
G04 Layer_Color=8388736*
%FSTAX24Y24*%
%MOIN*%
G70*
G04*
G04 #@! TF.SameCoordinates,E2E89361-0BB4-4F2D-B907-9D5CD4EE4A11*
G04*
G04*
G04 #@! TF.FilePolarity,Negative*
G04*
G01*
G75*
%ADD36R,0.4197X0.3299*%
%ADD37R,0.0400X0.1400*%
%ADD39O,0.0146X0.0630*%
%ADD40O,0.0630X0.0146*%
G04:AMPARAMS|DCode=41|XSize=45.3mil|YSize=53.1mil|CornerRadius=12.8mil|HoleSize=0mil|Usage=FLASHONLY|Rotation=0.000|XOffset=0mil|YOffset=0mil|HoleType=Round|Shape=RoundedRectangle|*
%AMROUNDEDRECTD41*
21,1,0.0453,0.0276,0,0,0.0*
21,1,0.0197,0.0531,0,0,0.0*
1,1,0.0256,0.0098,-0.0138*
1,1,0.0256,-0.0098,-0.0138*
1,1,0.0256,-0.0098,0.0138*
1,1,0.0256,0.0098,0.0138*
%
%ADD41ROUNDEDRECTD41*%
G04:AMPARAMS|DCode=42|XSize=45.3mil|YSize=53.1mil|CornerRadius=12.8mil|HoleSize=0mil|Usage=FLASHONLY|Rotation=270.000|XOffset=0mil|YOffset=0mil|HoleType=Round|Shape=RoundedRectangle|*
%AMROUNDEDRECTD42*
21,1,0.0453,0.0276,0,0,270.0*
21,1,0.0197,0.0531,0,0,270.0*
1,1,0.0256,-0.0138,-0.0098*
1,1,0.0256,-0.0138,0.0098*
1,1,0.0256,0.0138,0.0098*
1,1,0.0256,0.0138,-0.0098*
%
%ADD42ROUNDEDRECTD42*%
G04:AMPARAMS|DCode=43|XSize=47.4mil|YSize=55.2mil|CornerRadius=13.8mil|HoleSize=0mil|Usage=FLASHONLY|Rotation=90.000|XOffset=0mil|YOffset=0mil|HoleType=Round|Shape=RoundedRectangle|*
%AMROUNDEDRECTD43*
21,1,0.0474,0.0276,0,0,90.0*
21,1,0.0197,0.0552,0,0,90.0*
1,1,0.0277,0.0138,0.0098*
1,1,0.0277,0.0138,-0.0098*
1,1,0.0277,-0.0138,-0.0098*
1,1,0.0277,-0.0138,0.0098*
%
%ADD43ROUNDEDRECTD43*%
%ADD44R,0.0552X0.0474*%
G04:AMPARAMS|DCode=45|XSize=71mil|YSize=94.6mil|CornerRadius=19.7mil|HoleSize=0mil|Usage=FLASHONLY|Rotation=180.000|XOffset=0mil|YOffset=0mil|HoleType=Round|Shape=RoundedRectangle|*
%AMROUNDEDRECTD45*
21,1,0.0710,0.0551,0,0,180.0*
21,1,0.0315,0.0946,0,0,180.0*
1,1,0.0395,-0.0157,0.0276*
1,1,0.0395,0.0157,0.0276*
1,1,0.0395,0.0157,-0.0276*
1,1,0.0395,-0.0157,-0.0276*
%
%ADD45ROUNDEDRECTD45*%
%ADD46R,0.0710X0.0946*%
%ADD47R,0.0474X0.1025*%
%ADD48R,0.1379X0.1025*%
%ADD49R,0.1261X0.2049*%
%ADD50R,0.0474X0.0552*%
G04:AMPARAMS|DCode=51|XSize=47.4mil|YSize=55.2mil|CornerRadius=13.8mil|HoleSize=0mil|Usage=FLASHONLY|Rotation=0.000|XOffset=0mil|YOffset=0mil|HoleType=Round|Shape=RoundedRectangle|*
%AMROUNDEDRECTD51*
21,1,0.0474,0.0276,0,0,0.0*
21,1,0.0197,0.0552,0,0,0.0*
1,1,0.0277,0.0098,-0.0138*
1,1,0.0277,-0.0098,-0.0138*
1,1,0.0277,-0.0098,0.0138*
1,1,0.0277,0.0098,0.0138*
%
%ADD51ROUNDEDRECTD51*%
G04:AMPARAMS|DCode=52|XSize=71mil|YSize=94.6mil|CornerRadius=19.7mil|HoleSize=0mil|Usage=FLASHONLY|Rotation=90.000|XOffset=0mil|YOffset=0mil|HoleType=Round|Shape=RoundedRectangle|*
%AMROUNDEDRECTD52*
21,1,0.0710,0.0551,0,0,90.0*
21,1,0.0315,0.0946,0,0,90.0*
1,1,0.0395,0.0276,0.0157*
1,1,0.0395,0.0276,-0.0157*
1,1,0.0395,-0.0276,-0.0157*
1,1,0.0395,-0.0276,0.0157*
%
%ADD52ROUNDEDRECTD52*%
%ADD53R,0.0946X0.0710*%
%ADD54R,0.0552X0.0789*%
%ADD55R,0.0592X0.0671*%
%ADD56O,0.0592X0.0671*%
%ADD57C,0.0800*%
%ADD58C,0.0671*%
G04:AMPARAMS|DCode=59|XSize=86.7mil|YSize=86.7mil|CornerRadius=0mil|HoleSize=0mil|Usage=FLASHONLY|Rotation=0.000|XOffset=0mil|YOffset=0mil|HoleType=Round|Shape=Octagon|*
%AMOCTAGOND59*
4,1,8,0.0434,-0.0217,0.0434,0.0217,0.0217,0.0434,-0.0217,0.0434,-0.0434,0.0217,-0.0434,-0.0217,-0.0217,-0.0434,0.0217,-0.0434,0.0434,-0.0217,0.0*
%
%ADD59OCTAGOND59*%

%ADD60C,0.0867*%
%ADD61O,0.0671X0.0592*%
%ADD62R,0.0671X0.0592*%
%ADD63C,0.2049*%
%ADD64C,0.1535*%
%ADD65O,0.0906X0.0512*%
G04:AMPARAMS|DCode=66|XSize=86.7mil|YSize=86.7mil|CornerRadius=0mil|HoleSize=0mil|Usage=FLASHONLY|Rotation=270.000|XOffset=0mil|YOffset=0mil|HoleType=Round|Shape=Octagon|*
%AMOCTAGOND66*
4,1,8,-0.0217,-0.0434,0.0217,-0.0434,0.0434,-0.0217,0.0434,0.0217,0.0217,0.0434,-0.0217,0.0434,-0.0434,0.0217,-0.0434,-0.0217,-0.0217,-0.0434,0.0*
%
%ADD66OCTAGOND66*%

%ADD67C,0.0630*%
D36*
X017002Y033405D02*
D03*
D37*
X018342Y029348D02*
D03*
X017672D02*
D03*
X017002D02*
D03*
X016332D02*
D03*
X015662D02*
D03*
D39*
X016767Y019458D02*
D03*
X016964D02*
D03*
X017161D02*
D03*
X017358D02*
D03*
X017555D02*
D03*
X017752D02*
D03*
X017948D02*
D03*
X018145D02*
D03*
X018342D02*
D03*
X018539D02*
D03*
X018736D02*
D03*
X018933D02*
D03*
Y022804D02*
D03*
X018736D02*
D03*
X018539D02*
D03*
X018342D02*
D03*
X018145D02*
D03*
X017948D02*
D03*
X017752D02*
D03*
X017555D02*
D03*
X017358D02*
D03*
X017161D02*
D03*
X016964D02*
D03*
X016767D02*
D03*
D40*
X019523Y020048D02*
D03*
X019523Y020245D02*
D03*
X019523Y020442D02*
D03*
X019523Y020639D02*
D03*
X019523Y020836D02*
D03*
X019523Y021033D02*
D03*
X019523Y021229D02*
D03*
X019523Y021426D02*
D03*
X019523Y021623D02*
D03*
X019523Y02182D02*
D03*
X019523Y022017D02*
D03*
X019523Y022214D02*
D03*
X016177Y022214D02*
D03*
X016177Y022017D02*
D03*
X016177Y02182D02*
D03*
X016177Y021623D02*
D03*
X016177Y021426D02*
D03*
X016177Y02123D02*
D03*
X016177Y021033D02*
D03*
X016177Y020836D02*
D03*
X016177Y020639D02*
D03*
X016177Y020442D02*
D03*
X016177Y020245D02*
D03*
X016177Y020048D02*
D03*
D41*
X005198Y017929D02*
D03*
X004411D02*
D03*
X005198Y018929D02*
D03*
X004411D02*
D03*
X005198Y023992D02*
D03*
X004411D02*
D03*
X005198Y022992D02*
D03*
X004411D02*
D03*
X005198Y012859D02*
D03*
X004411D02*
D03*
X005198Y013871D02*
D03*
X004411D02*
D03*
X014047Y024905D02*
D03*
X01326D02*
D03*
X014047Y0241D02*
D03*
X01326D02*
D03*
X022791Y009D02*
D03*
X023578D02*
D03*
X022791Y01099D02*
D03*
X023578D02*
D03*
X022791Y01D02*
D03*
X023578D02*
D03*
X014Y01099D02*
D03*
X014787D02*
D03*
X014Y009993D02*
D03*
X014787D02*
D03*
X014Y008993D02*
D03*
X014787D02*
D03*
X00508Y01095D02*
D03*
X005867D02*
D03*
X00508Y00995D02*
D03*
X005867D02*
D03*
X00508Y00895D02*
D03*
X005867D02*
D03*
X007008Y033268D02*
D03*
X007795D02*
D03*
D42*
X03095Y014276D02*
D03*
Y015063D02*
D03*
X032283Y009206D02*
D03*
Y009994D02*
D03*
X03095Y017402D02*
D03*
Y018189D02*
D03*
X01825Y026337D02*
D03*
Y027125D02*
D03*
X017377Y026337D02*
D03*
Y027125D02*
D03*
X0203Y024106D02*
D03*
Y024894D02*
D03*
X015014Y024126D02*
D03*
Y024914D02*
D03*
X028917Y019199D02*
D03*
Y018412D02*
D03*
X025588Y019199D02*
D03*
Y018411D02*
D03*
X027302Y019199D02*
D03*
Y018411D02*
D03*
X02387Y019199D02*
D03*
Y018411D02*
D03*
X026547Y029016D02*
D03*
Y029803D02*
D03*
D43*
X018197Y018226D02*
D03*
Y017439D02*
D03*
X01732Y018226D02*
D03*
Y017439D02*
D03*
X015939Y024126D02*
D03*
Y024914D02*
D03*
X017377Y024097D02*
D03*
X01909D02*
D03*
Y024884D02*
D03*
X034915Y026457D02*
D03*
Y025669D02*
D03*
X02878Y029803D02*
D03*
Y029016D02*
D03*
X027933Y029803D02*
D03*
Y029016D02*
D03*
X029985Y032098D02*
D03*
Y032886D02*
D03*
X025642Y029803D02*
D03*
X030886Y032098D02*
D03*
Y032886D02*
D03*
X013661Y033083D02*
D03*
Y03387D02*
D03*
X031772Y032098D02*
D03*
Y032886D02*
D03*
X018255Y024097D02*
D03*
D44*
X017377Y024884D02*
D03*
X025642Y029016D02*
D03*
X018255Y024884D02*
D03*
D45*
X034646Y030669D02*
D03*
X033268Y028938D02*
D03*
D46*
X034646Y028937D02*
D03*
X033268Y030671D02*
D03*
D47*
X02998Y02819D02*
D03*
X030886D02*
D03*
X031791D02*
D03*
D48*
X030886Y030474D02*
D03*
D49*
X024864Y032492D02*
D03*
X020139D02*
D03*
D50*
X007008Y032402D02*
D03*
D51*
X007795D02*
D03*
X009725Y023652D02*
D03*
X008938D02*
D03*
D52*
X023433Y029096D02*
D03*
X007948Y028516D02*
D03*
X009648Y030065D02*
D03*
X008093Y034409D02*
D03*
D53*
X0217Y029096D02*
D03*
X009681Y028516D02*
D03*
X007916Y030065D02*
D03*
X006361Y034409D02*
D03*
D54*
X025588Y020127D02*
D03*
Y022883D02*
D03*
X023884Y020132D02*
D03*
Y022888D02*
D03*
X028917Y020127D02*
D03*
Y022883D02*
D03*
X027255Y020127D02*
D03*
Y022883D02*
D03*
D55*
X009702Y025876D02*
D03*
D56*
X008702D02*
D03*
D57*
X0296Y014D02*
D03*
Y013D02*
D03*
Y012D02*
D03*
Y011D02*
D03*
Y01D02*
D03*
Y009D02*
D03*
Y008D02*
D03*
Y007D02*
D03*
X0246D02*
D03*
Y008D02*
D03*
Y009D02*
D03*
Y01D02*
D03*
Y011D02*
D03*
Y012D02*
D03*
Y013D02*
D03*
Y014D02*
D03*
X020891Y01399D02*
D03*
Y01299D02*
D03*
Y01199D02*
D03*
Y01099D02*
D03*
Y00999D02*
D03*
Y00899D02*
D03*
Y00799D02*
D03*
Y00699D02*
D03*
X015891D02*
D03*
Y00799D02*
D03*
Y00899D02*
D03*
Y00999D02*
D03*
Y01099D02*
D03*
Y01199D02*
D03*
Y01299D02*
D03*
Y01399D02*
D03*
X00711Y01395D02*
D03*
Y01295D02*
D03*
Y01195D02*
D03*
Y01095D02*
D03*
Y00995D02*
D03*
Y00895D02*
D03*
Y00795D02*
D03*
Y00695D02*
D03*
X01211D02*
D03*
Y00795D02*
D03*
Y00895D02*
D03*
Y00995D02*
D03*
Y01095D02*
D03*
Y01195D02*
D03*
Y01295D02*
D03*
Y01395D02*
D03*
D58*
X011457Y032835D02*
D03*
Y034173D02*
D03*
X027769Y01265D02*
D03*
X026431D02*
D03*
X019061D02*
D03*
X017722D02*
D03*
X010312D02*
D03*
X008974D02*
D03*
X027638Y031823D02*
D03*
Y033161D02*
D03*
D59*
X032283Y016063D02*
D03*
Y012945D02*
D03*
X032283Y019189D02*
D03*
X003071Y010871D02*
D03*
Y015929D02*
D03*
Y020992D02*
D03*
X032283Y023386D02*
D03*
D60*
Y015063D02*
D03*
Y011945D02*
D03*
X032283Y018189D02*
D03*
X003071Y011871D02*
D03*
Y012871D02*
D03*
Y013871D02*
D03*
Y018929D02*
D03*
Y017929D02*
D03*
Y016929D02*
D03*
Y023992D02*
D03*
Y022992D02*
D03*
Y021992D02*
D03*
X00858Y00315D02*
D03*
X00958D02*
D03*
X01058D02*
D03*
X016891D02*
D03*
X017891D02*
D03*
X018891D02*
D03*
X032283Y022386D02*
D03*
Y021386D02*
D03*
X027253Y00315D02*
D03*
X026253D02*
D03*
X025253D02*
D03*
D61*
X032898Y025484D02*
D03*
D62*
Y026484D02*
D03*
D63*
X001911Y001912D02*
D03*
X033521Y001912D02*
D03*
X03359Y033583D02*
D03*
X001912Y033521D02*
D03*
D64*
X006339Y030118D02*
D03*
Y027284D02*
D03*
D65*
X003976Y031358D02*
D03*
Y026043D02*
D03*
D66*
X01158Y00315D02*
D03*
X019891D02*
D03*
X028253D02*
D03*
D67*
X011621Y021681D02*
D03*
Y022681D02*
D03*
Y023681D02*
D03*
Y024681D02*
D03*
M02*
