G04*
G04 #@! TF.GenerationSoftware,Altium Limited,Altium Designer,24.8.2 (39)*
G04*
G04 Layer_Color=32896*
%FSTAX24Y24*%
%MOIN*%
G70*
G04*
G04 #@! TF.SameCoordinates,E2E89361-0BB4-4F2D-B907-9D5CD4EE4A11*
G04*
G04*
G04 #@! TF.FilePolarity,Positive*
G04*
G01*
G75*
%ADD12C,0.0079*%
G36*
X01717Y014894D02*
X017179Y014893D01*
X017196Y014891D01*
X017211Y014886D01*
X017217Y014884D01*
X017223Y014881D01*
X017229Y014879D01*
X017233Y014876D01*
X017238Y014874D01*
X017241Y014872D01*
X017244Y01487D01*
X017246Y014869D01*
X017247Y014868D01*
X017247Y014868D01*
X017253Y014862D01*
X017259Y014857D01*
X017264Y01485D01*
X017268Y014843D01*
X017275Y014828D01*
X017281Y014815D01*
X017282Y014807D01*
X017284Y014801D01*
X017286Y014796D01*
X017286Y014791D01*
X017287Y014786D01*
Y014783D01*
X017288Y014781D01*
Y014781D01*
X017215Y014773D01*
X017213Y014785D01*
X017211Y014794D01*
X017209Y014802D01*
X017206Y014808D01*
X017204Y014813D01*
X017202Y014817D01*
X0172Y014819D01*
X0172Y01482D01*
X017194Y014824D01*
X017188Y014827D01*
X017182Y01483D01*
X017176Y014832D01*
X017171Y014833D01*
X017166Y014833D01*
X017162D01*
X017154Y014833D01*
X017147Y014831D01*
X017141Y014829D01*
X017135Y014827D01*
X017131Y014825D01*
X017128Y014822D01*
X017126Y014821D01*
X017126Y01482D01*
X017121Y014815D01*
X017118Y014808D01*
X017116Y014802D01*
X017114Y014796D01*
X017113Y014791D01*
X017112Y014786D01*
Y014783D01*
Y014782D01*
Y014782D01*
X017113Y014773D01*
X017115Y014766D01*
X017117Y014758D01*
X01712Y014751D01*
X017123Y014745D01*
X017126Y014741D01*
X017127Y014738D01*
X017128Y014737D01*
X01713Y014734D01*
X017134Y01473D01*
X017138Y014725D01*
X017142Y01472D01*
X017152Y01471D01*
X017162Y014699D01*
X017172Y014689D01*
X017177Y014685D01*
X017181Y014681D01*
X017185Y014678D01*
X017187Y014676D01*
X017188Y014674D01*
X017189Y014674D01*
X0172Y014663D01*
X01721Y014653D01*
X01722Y014644D01*
X017228Y014635D01*
X017236Y014627D01*
X017242Y014619D01*
X017248Y014613D01*
X017253Y014606D01*
X017258Y0146D01*
X017262Y014595D01*
X017265Y014591D01*
X017267Y014588D01*
X01727Y014585D01*
X017271Y014583D01*
X017272Y014582D01*
Y014581D01*
X017279Y014569D01*
X017284Y014555D01*
X017289Y014543D01*
X017292Y014532D01*
X017294Y014522D01*
X017295Y014518D01*
X017296Y014515D01*
X017296Y014512D01*
X017297Y01451D01*
Y014509D01*
Y014508D01*
X017039D01*
Y014576D01*
X017185D01*
X017181Y014584D01*
X017176Y01459D01*
X017174Y014593D01*
X017172Y014595D01*
X017171Y014596D01*
X01717Y014596D01*
X017168Y014599D01*
X017166Y014601D01*
X017159Y014608D01*
X017152Y014615D01*
X017145Y014622D01*
X017137Y014629D01*
X017131Y014634D01*
X017129Y014636D01*
X017127Y014638D01*
X017126Y014639D01*
X017126Y014639D01*
X017114Y014651D01*
X017104Y01466D01*
X017095Y014669D01*
X017089Y014676D01*
X017084Y014681D01*
X01708Y014685D01*
X017078Y014688D01*
X017077Y014689D01*
X01707Y014698D01*
X017064Y014707D01*
X017059Y014715D01*
X017055Y014722D01*
X017052Y014729D01*
X01705Y014734D01*
X017049Y014736D01*
X017048Y014737D01*
X017045Y014746D01*
X017043Y014755D01*
X017041Y014763D01*
X01704Y014771D01*
X017039Y014777D01*
X017039Y014782D01*
Y014786D01*
Y014787D01*
X017039Y014795D01*
X01704Y014803D01*
X017041Y014811D01*
X017044Y014818D01*
X017049Y014831D01*
X017055Y014842D01*
X017058Y014847D01*
X017061Y014851D01*
X017064Y014855D01*
X017066Y014858D01*
X017069Y01486D01*
X01707Y014862D01*
X017071Y014863D01*
X017071Y014863D01*
X017077Y014869D01*
X017085Y014874D01*
X017091Y014878D01*
X017099Y014881D01*
X017114Y014887D01*
X017128Y014891D01*
X017135Y014892D01*
X017141Y014893D01*
X017146Y014893D01*
X017151Y014894D01*
X017155Y014894D01*
X017161D01*
X01717Y014894D01*
D02*
G37*
G36*
X016872D02*
X01688Y014893D01*
X016898Y014891D01*
X016912Y014886D01*
X016919Y014884D01*
X016925Y014881D01*
X01693Y014879D01*
X016935Y014876D01*
X016939Y014874D01*
X016943Y014872D01*
X016945Y01487D01*
X016947Y014869D01*
X016948Y014868D01*
X016949Y014868D01*
X016955Y014862D01*
X01696Y014857D01*
X016965Y01485D01*
X01697Y014843D01*
X016976Y014828D01*
X016982Y014815D01*
X016984Y014807D01*
X016985Y014801D01*
X016987Y014796D01*
X016988Y014791D01*
X016989Y014786D01*
Y014783D01*
X016989Y014781D01*
Y014781D01*
X016916Y014773D01*
X016915Y014785D01*
X016913Y014794D01*
X01691Y014802D01*
X016908Y014808D01*
X016905Y014813D01*
X016903Y014817D01*
X016902Y014819D01*
X016901Y01482D01*
X016895Y014824D01*
X016889Y014827D01*
X016883Y01483D01*
X016877Y014832D01*
X016872Y014833D01*
X016868Y014833D01*
X016864D01*
X016855Y014833D01*
X016848Y014831D01*
X016842Y014829D01*
X016837Y014827D01*
X016833Y014825D01*
X016829Y014822D01*
X016828Y014821D01*
X016827Y01482D01*
X016823Y014815D01*
X016819Y014808D01*
X016817Y014802D01*
X016816Y014796D01*
X016814Y014791D01*
X016814Y014786D01*
Y014783D01*
Y014782D01*
Y014782D01*
X016814Y014773D01*
X016816Y014766D01*
X016819Y014758D01*
X016822Y014751D01*
X016824Y014745D01*
X016827Y014741D01*
X016829Y014738D01*
X016829Y014737D01*
X016832Y014734D01*
X016835Y01473D01*
X016839Y014725D01*
X016844Y01472D01*
X016854Y01471D01*
X016864Y014699D01*
X016874Y014689D01*
X016878Y014685D01*
X016883Y014681D01*
X016886Y014678D01*
X016888Y014676D01*
X01689Y014674D01*
X01689Y014674D01*
X016902Y014663D01*
X016912Y014653D01*
X016921Y014644D01*
X016929Y014635D01*
X016937Y014627D01*
X016944Y014619D01*
X01695Y014613D01*
X016955Y014606D01*
X016959Y0146D01*
X016963Y014595D01*
X016966Y014591D01*
X016969Y014588D01*
X016971Y014585D01*
X016972Y014583D01*
X016973Y014582D01*
Y014581D01*
X01698Y014569D01*
X016986Y014555D01*
X01699Y014543D01*
X016994Y014532D01*
X016996Y014522D01*
X016996Y014518D01*
X016997Y014515D01*
X016998Y014512D01*
X016998Y01451D01*
Y014509D01*
Y014508D01*
X01674D01*
Y014576D01*
X016887D01*
X016882Y014584D01*
X016877Y01459D01*
X016875Y014593D01*
X016873Y014595D01*
X016872Y014596D01*
X016872Y014596D01*
X016869Y014599D01*
X016867Y014601D01*
X01686Y014608D01*
X016853Y014615D01*
X016846Y014622D01*
X016839Y014629D01*
X016833Y014634D01*
X016831Y014636D01*
X016829Y014638D01*
X016828Y014639D01*
X016827Y014639D01*
X016815Y014651D01*
X016805Y01466D01*
X016797Y014669D01*
X01679Y014676D01*
X016785Y014681D01*
X016782Y014685D01*
X016779Y014688D01*
X016779Y014689D01*
X016772Y014698D01*
X016766Y014707D01*
X016761Y014715D01*
X016757Y014722D01*
X016753Y014729D01*
X016751Y014734D01*
X01675Y014736D01*
X016749Y014737D01*
X016746Y014746D01*
X016744Y014755D01*
X016742Y014763D01*
X016741Y014771D01*
X016741Y014777D01*
X01674Y014782D01*
Y014786D01*
Y014787D01*
X016741Y014795D01*
X016742Y014803D01*
X016743Y014811D01*
X016745Y014818D01*
X016751Y014831D01*
X016756Y014842D01*
X016759Y014847D01*
X016762Y014851D01*
X016765Y014855D01*
X016768Y014858D01*
X01677Y01486D01*
X016771Y014862D01*
X016772Y014863D01*
X016773Y014863D01*
X016779Y014869D01*
X016786Y014874D01*
X016793Y014878D01*
X016801Y014881D01*
X016815Y014887D01*
X016829Y014891D01*
X016836Y014892D01*
X016842Y014893D01*
X016848Y014893D01*
X016853Y014894D01*
X016857Y014894D01*
X016862D01*
X016872Y014894D01*
D02*
G37*
G36*
X017507Y014899D02*
X017521Y014897D01*
X017534Y014894D01*
X017547Y014891D01*
X017558Y014887D01*
X017569Y014883D01*
X017579Y014878D01*
X017588Y014873D01*
X017596Y014868D01*
X017603Y014863D01*
X017609Y014858D01*
X017614Y014855D01*
X017617Y014851D01*
X01762Y014848D01*
X017622Y014847D01*
X017622Y014846D01*
X017631Y014836D01*
X017639Y014825D01*
X017645Y014813D01*
X017651Y014801D01*
X017656Y014788D01*
X01766Y014776D01*
X017663Y014763D01*
X017666Y014752D01*
X017668Y01474D01*
X017669Y01473D01*
X01767Y014721D01*
X017671Y014713D01*
Y014706D01*
X017672Y014701D01*
Y014698D01*
Y014697D01*
Y014697D01*
X017671Y01468D01*
X01767Y014665D01*
X017667Y01465D01*
X017664Y014636D01*
X017661Y014624D01*
X017656Y014611D01*
X017652Y014601D01*
X017647Y014591D01*
X017643Y014583D01*
X017639Y014575D01*
X017634Y014569D01*
X017631Y014563D01*
X017627Y014559D01*
X017625Y014556D01*
X017624Y014554D01*
X017623Y014554D01*
X017614Y014544D01*
X017604Y014536D01*
X017593Y014529D01*
X017583Y014524D01*
X017572Y014519D01*
X017561Y014514D01*
X017551Y014511D01*
X017542Y014508D01*
X017533Y014506D01*
X017524Y014504D01*
X017516Y014503D01*
X01751Y014503D01*
X017505Y014502D01*
X017501Y014502D01*
X017498D01*
X017486Y014502D01*
X017475Y014503D01*
X017465Y014504D01*
X017455Y014507D01*
X017447Y014509D01*
X017438Y014511D01*
X01743Y014514D01*
X017423Y014517D01*
X017417Y01452D01*
X017412Y014523D01*
X017407Y014525D01*
X017403Y014527D01*
X017399Y014529D01*
X017397Y014531D01*
X017396Y014532D01*
X017395Y014532D01*
X017388Y014538D01*
X017382Y014545D01*
X017369Y01456D01*
X017359Y014575D01*
X017352Y01459D01*
X017348Y014598D01*
X017346Y014604D01*
X017343Y01461D01*
X017341Y014615D01*
X017339Y01462D01*
X017338Y014623D01*
X017338Y014625D01*
Y014626D01*
X017413Y014649D01*
X017418Y014634D01*
X017423Y014621D01*
X017428Y014611D01*
X017433Y014602D01*
X017438Y014595D01*
X017442Y014591D01*
X017444Y014588D01*
X017445Y014587D01*
X017454Y01458D01*
X017463Y014576D01*
X017472Y014573D01*
X01748Y01457D01*
X017487Y014569D01*
X017493Y014568D01*
X017495Y014568D01*
X017498D01*
X017506Y014568D01*
X017513Y014569D01*
X017526Y014573D01*
X017538Y014577D01*
X017548Y014583D01*
X017555Y014589D01*
X017561Y014593D01*
X017563Y014595D01*
X017565Y014597D01*
X017565Y014598D01*
X017566Y014598D01*
X01757Y014604D01*
X017574Y014611D01*
X017578Y014619D01*
X017581Y014628D01*
X017585Y014645D01*
X017589Y014662D01*
X01759Y01467D01*
X01759Y014677D01*
X017591Y014685D01*
Y014691D01*
X017592Y014695D01*
Y014699D01*
Y014702D01*
Y014702D01*
X017591Y014715D01*
X017591Y014727D01*
X01759Y014737D01*
X017588Y014747D01*
X017586Y014756D01*
X017584Y014765D01*
X017581Y014772D01*
X017579Y014778D01*
X017576Y014784D01*
X017574Y014789D01*
X017572Y014793D01*
X01757Y014796D01*
X017568Y014799D01*
X017567Y014801D01*
X017566Y014802D01*
Y014802D01*
X017561Y014808D01*
X017555Y014813D01*
X01755Y014817D01*
X017544Y01482D01*
X017532Y014826D01*
X017521Y01483D01*
X017511Y014832D01*
X017507Y014832D01*
X017504Y014833D01*
X0175Y014833D01*
X017497D01*
X017485Y014833D01*
X017475Y014831D01*
X017467Y014828D01*
X017459Y014825D01*
X017453Y014821D01*
X017448Y014818D01*
X017445Y014816D01*
X017444Y014816D01*
X017437Y014809D01*
X01743Y014801D01*
X017425Y014793D01*
X017422Y014786D01*
X017419Y014779D01*
X017417Y014774D01*
X017416Y014772D01*
Y01477D01*
X017415Y01477D01*
Y014769D01*
X017339Y014787D01*
X017344Y014803D01*
X017351Y014817D01*
X017357Y01483D01*
X017363Y01484D01*
X017369Y014847D01*
X017372Y014851D01*
X017374Y014853D01*
X017376Y014855D01*
X017377Y014857D01*
X017378Y014858D01*
X017378D01*
X017387Y014865D01*
X017396Y014872D01*
X017405Y014877D01*
X017414Y014882D01*
X017424Y014886D01*
X017434Y014889D01*
X017443Y014892D01*
X017452Y014894D01*
X01746Y014896D01*
X017468Y014897D01*
X017475Y014898D01*
X017481Y014899D01*
X017486Y014899D01*
X017493D01*
X017507Y014899D01*
D02*
G37*
G36*
X025875Y014882D02*
X025882Y01487D01*
X02589Y014859D01*
X025897Y01485D01*
X025904Y014843D01*
X02591Y014837D01*
X025912Y014835D01*
X025914Y014833D01*
X025915Y014833D01*
X025916Y014832D01*
X025928Y014823D01*
X02594Y014816D01*
X02595Y01481D01*
X02596Y014805D01*
X025967Y014802D01*
X025973Y014799D01*
X025975Y014798D01*
X025977Y014798D01*
X025977Y014797D01*
X025978D01*
Y014731D01*
X025958Y014739D01*
X02594Y014747D01*
X025932Y014751D01*
X025924Y014756D01*
X025917Y014761D01*
X02591Y014765D01*
X025904Y01477D01*
X025898Y014773D01*
X025894Y014777D01*
X02589Y01478D01*
X025887Y014783D01*
X025885Y014785D01*
X025884Y014786D01*
X025883Y014786D01*
Y014508D01*
X025809D01*
Y014894D01*
X025869D01*
X025875Y014882D01*
D02*
G37*
G36*
X026217Y014899D02*
X026231Y014897D01*
X026244Y014894D01*
X026257Y014891D01*
X026268Y014887D01*
X026279Y014883D01*
X026289Y014878D01*
X026298Y014873D01*
X026306Y014868D01*
X026313Y014863D01*
X026319Y014858D01*
X026324Y014855D01*
X026328Y014851D01*
X02633Y014848D01*
X026332Y014847D01*
X026332Y014846D01*
X026341Y014836D01*
X026349Y014825D01*
X026355Y014813D01*
X026361Y014801D01*
X026366Y014788D01*
X02637Y014776D01*
X026373Y014763D01*
X026376Y014752D01*
X026378Y01474D01*
X026379Y01473D01*
X02638Y014721D01*
X026381Y014713D01*
Y014706D01*
X026382Y014701D01*
Y014698D01*
Y014697D01*
Y014697D01*
X026381Y01468D01*
X02638Y014665D01*
X026377Y01465D01*
X026374Y014636D01*
X026371Y014624D01*
X026366Y014611D01*
X026362Y014601D01*
X026357Y014591D01*
X026353Y014583D01*
X026349Y014575D01*
X026344Y014569D01*
X026341Y014563D01*
X026337Y014559D01*
X026335Y014556D01*
X026334Y014554D01*
X026333Y014554D01*
X026324Y014544D01*
X026314Y014536D01*
X026303Y014529D01*
X026293Y014524D01*
X026282Y014519D01*
X026271Y014514D01*
X026261Y014511D01*
X026252Y014508D01*
X026243Y014506D01*
X026234Y014504D01*
X026226Y014503D01*
X02622Y014503D01*
X026215Y014502D01*
X026211Y014502D01*
X026208D01*
X026196Y014502D01*
X026185Y014503D01*
X026175Y014504D01*
X026165Y014507D01*
X026157Y014509D01*
X026148Y014511D01*
X02614Y014514D01*
X026133Y014517D01*
X026127Y01452D01*
X026122Y014523D01*
X026117Y014525D01*
X026113Y014527D01*
X026109Y014529D01*
X026107Y014531D01*
X026106Y014532D01*
X026105Y014532D01*
X026098Y014538D01*
X026092Y014545D01*
X026079Y01456D01*
X026069Y014575D01*
X026062Y01459D01*
X026058Y014598D01*
X026056Y014604D01*
X026053Y01461D01*
X026051Y014615D01*
X026049Y01462D01*
X026048Y014623D01*
X026048Y014625D01*
Y014626D01*
X026123Y014649D01*
X026128Y014634D01*
X026133Y014621D01*
X026138Y014611D01*
X026143Y014602D01*
X026148Y014595D01*
X026152Y014591D01*
X026154Y014588D01*
X026155Y014587D01*
X026164Y01458D01*
X026173Y014576D01*
X026182Y014573D01*
X02619Y01457D01*
X026197Y014569D01*
X026203Y014568D01*
X026205Y014568D01*
X026208D01*
X026216Y014568D01*
X026223Y014569D01*
X026236Y014573D01*
X026248Y014577D01*
X026258Y014583D01*
X026265Y014589D01*
X026271Y014593D01*
X026273Y014595D01*
X026275Y014597D01*
X026275Y014598D01*
X026276Y014598D01*
X02628Y014604D01*
X026284Y014611D01*
X026288Y014619D01*
X026291Y014628D01*
X026295Y014645D01*
X026299Y014662D01*
X0263Y01467D01*
X0263Y014677D01*
X026301Y014685D01*
Y014691D01*
X026302Y014695D01*
Y014699D01*
Y014702D01*
Y014702D01*
X026301Y014715D01*
X026301Y014727D01*
X0263Y014737D01*
X026298Y014747D01*
X026296Y014756D01*
X026294Y014765D01*
X026291Y014772D01*
X026289Y014778D01*
X026286Y014784D01*
X026284Y014789D01*
X026282Y014793D01*
X02628Y014796D01*
X026278Y014799D01*
X026277Y014801D01*
X026276Y014802D01*
Y014802D01*
X026271Y014808D01*
X026265Y014813D01*
X02626Y014817D01*
X026254Y01482D01*
X026242Y014826D01*
X026231Y01483D01*
X026221Y014832D01*
X026217Y014832D01*
X026214Y014833D01*
X02621Y014833D01*
X026207D01*
X026195Y014833D01*
X026185Y014831D01*
X026177Y014828D01*
X026169Y014825D01*
X026163Y014821D01*
X026158Y014818D01*
X026155Y014816D01*
X026154Y014816D01*
X026147Y014809D01*
X02614Y014801D01*
X026135Y014793D01*
X026132Y014786D01*
X026129Y014779D01*
X026127Y014774D01*
X026126Y014772D01*
Y01477D01*
X026125Y01477D01*
Y014769D01*
X026049Y014787D01*
X026054Y014803D01*
X026061Y014817D01*
X026067Y01483D01*
X026073Y01484D01*
X026079Y014847D01*
X026082Y014851D01*
X026084Y014853D01*
X026086Y014855D01*
X026087Y014857D01*
X026088Y014858D01*
X026088D01*
X026097Y014865D01*
X026106Y014872D01*
X026115Y014877D01*
X026124Y014882D01*
X026134Y014886D01*
X026144Y014889D01*
X026153Y014892D01*
X026162Y014894D01*
X02617Y014896D01*
X026178Y014897D01*
X026185Y014898D01*
X026191Y014899D01*
X026196Y014899D01*
X026203D01*
X026217Y014899D01*
D02*
G37*
G36*
X025699Y014819D02*
X025532D01*
X02555Y014794D01*
X025566Y014768D01*
X025574Y014756D01*
X02558Y014743D01*
X025587Y014731D01*
X025592Y01472D01*
X025597Y01471D01*
X025602Y0147D01*
X025605Y014691D01*
X025609Y014684D01*
X025611Y014679D01*
X025613Y014674D01*
X025614Y014671D01*
X025614Y01467D01*
X02562Y014655D01*
X025625Y01464D01*
X025629Y014625D01*
X025633Y01461D01*
X025635Y014596D01*
X025638Y014583D01*
X02564Y01457D01*
X025642Y014558D01*
X025644Y014548D01*
X025645Y014538D01*
X025646Y014529D01*
X025647Y014522D01*
Y014516D01*
X025647Y014512D01*
Y014509D01*
Y014508D01*
X025576D01*
X025575Y014528D01*
X025574Y014548D01*
X025571Y014567D01*
X02557Y014576D01*
X025568Y014585D01*
X025567Y014593D01*
X025565Y0146D01*
X025564Y014606D01*
X025563Y014612D01*
X025562Y014617D01*
X02556Y01462D01*
X02556Y014623D01*
Y014623D01*
X025553Y014647D01*
X025545Y01467D01*
X025541Y01468D01*
X025537Y01469D01*
X025533Y0147D01*
X025529Y014709D01*
X025525Y014716D01*
X025522Y014724D01*
X025518Y01473D01*
X025516Y014735D01*
X025514Y01474D01*
X025512Y014742D01*
X025511Y014745D01*
X025511Y014745D01*
X025504Y014756D01*
X025498Y014766D01*
X025493Y014775D01*
X025487Y014783D01*
X025482Y014791D01*
X025476Y014798D01*
X025471Y014805D01*
X025467Y014811D01*
X025462Y014817D01*
X025458Y014821D01*
X025455Y014825D01*
X025452Y014828D01*
X02545Y014831D01*
X025448Y014832D01*
X025447Y014833D01*
X025447Y014834D01*
Y014887D01*
X025699D01*
Y014819D01*
D02*
G37*
G36*
X008415Y014882D02*
X008422Y01487D01*
X00843Y014859D01*
X008437Y01485D01*
X008444Y014843D01*
X00845Y014837D01*
X008452Y014835D01*
X008454Y014833D01*
X008455Y014833D01*
X008456Y014832D01*
X008468Y014823D01*
X00848Y014816D01*
X00849Y01481D01*
X0085Y014805D01*
X008507Y014802D01*
X008513Y014799D01*
X008515Y014798D01*
X008517Y014798D01*
X008517Y014797D01*
X008518D01*
Y014731D01*
X008498Y014739D01*
X00848Y014747D01*
X008472Y014751D01*
X008464Y014756D01*
X008457Y014761D01*
X00845Y014765D01*
X008444Y01477D01*
X008438Y014773D01*
X008434Y014777D01*
X00843Y01478D01*
X008427Y014783D01*
X008425Y014785D01*
X008424Y014786D01*
X008423Y014786D01*
Y014508D01*
X008349D01*
Y014894D01*
X008409D01*
X008415Y014882D01*
D02*
G37*
G36*
X008757Y014899D02*
X008771Y014897D01*
X008784Y014894D01*
X008797Y014891D01*
X008808Y014887D01*
X008819Y014883D01*
X008829Y014878D01*
X008838Y014873D01*
X008846Y014868D01*
X008853Y014863D01*
X008859Y014858D01*
X008864Y014855D01*
X008867Y014851D01*
X00887Y014848D01*
X008872Y014847D01*
X008872Y014846D01*
X008881Y014836D01*
X008889Y014825D01*
X008895Y014813D01*
X008901Y014801D01*
X008906Y014788D01*
X00891Y014776D01*
X008913Y014763D01*
X008916Y014752D01*
X008918Y01474D01*
X008919Y01473D01*
X00892Y014721D01*
X008921Y014713D01*
Y014706D01*
X008922Y014701D01*
Y014698D01*
Y014697D01*
Y014697D01*
X008921Y01468D01*
X00892Y014665D01*
X008917Y01465D01*
X008914Y014636D01*
X008911Y014624D01*
X008906Y014611D01*
X008902Y014601D01*
X008897Y014591D01*
X008893Y014583D01*
X008889Y014575D01*
X008884Y014569D01*
X008881Y014563D01*
X008877Y014559D01*
X008875Y014556D01*
X008874Y014554D01*
X008873Y014554D01*
X008864Y014544D01*
X008854Y014536D01*
X008843Y014529D01*
X008833Y014524D01*
X008822Y014519D01*
X008811Y014514D01*
X008801Y014511D01*
X008792Y014508D01*
X008783Y014506D01*
X008774Y014504D01*
X008766Y014503D01*
X00876Y014503D01*
X008755Y014502D01*
X008751Y014502D01*
X008748D01*
X008736Y014502D01*
X008725Y014503D01*
X008715Y014504D01*
X008705Y014507D01*
X008697Y014509D01*
X008688Y014511D01*
X00868Y014514D01*
X008673Y014517D01*
X008667Y01452D01*
X008662Y014523D01*
X008657Y014525D01*
X008653Y014527D01*
X008649Y014529D01*
X008647Y014531D01*
X008646Y014532D01*
X008645Y014532D01*
X008638Y014538D01*
X008632Y014545D01*
X008619Y01456D01*
X008609Y014575D01*
X008602Y01459D01*
X008598Y014598D01*
X008596Y014604D01*
X008593Y01461D01*
X008591Y014615D01*
X008589Y01462D01*
X008588Y014623D01*
X008588Y014625D01*
Y014626D01*
X008663Y014649D01*
X008668Y014634D01*
X008673Y014621D01*
X008678Y014611D01*
X008683Y014602D01*
X008688Y014595D01*
X008692Y014591D01*
X008694Y014588D01*
X008695Y014587D01*
X008704Y01458D01*
X008713Y014576D01*
X008722Y014573D01*
X00873Y01457D01*
X008737Y014569D01*
X008743Y014568D01*
X008745Y014568D01*
X008748D01*
X008756Y014568D01*
X008763Y014569D01*
X008776Y014573D01*
X008788Y014577D01*
X008798Y014583D01*
X008805Y014589D01*
X008811Y014593D01*
X008813Y014595D01*
X008815Y014597D01*
X008815Y014598D01*
X008816Y014598D01*
X00882Y014604D01*
X008824Y014611D01*
X008828Y014619D01*
X008831Y014628D01*
X008835Y014645D01*
X008839Y014662D01*
X00884Y01467D01*
X00884Y014677D01*
X008841Y014685D01*
Y014691D01*
X008842Y014695D01*
Y014699D01*
Y014702D01*
Y014702D01*
X008841Y014715D01*
X008841Y014727D01*
X00884Y014737D01*
X008838Y014747D01*
X008836Y014756D01*
X008834Y014765D01*
X008831Y014772D01*
X008829Y014778D01*
X008826Y014784D01*
X008824Y014789D01*
X008822Y014793D01*
X00882Y014796D01*
X008818Y014799D01*
X008817Y014801D01*
X008816Y014802D01*
Y014802D01*
X008811Y014808D01*
X008805Y014813D01*
X0088Y014817D01*
X008794Y01482D01*
X008782Y014826D01*
X008771Y01483D01*
X008761Y014832D01*
X008757Y014832D01*
X008754Y014833D01*
X00875Y014833D01*
X008747D01*
X008735Y014833D01*
X008725Y014831D01*
X008717Y014828D01*
X008709Y014825D01*
X008703Y014821D01*
X008698Y014818D01*
X008695Y014816D01*
X008694Y014816D01*
X008687Y014809D01*
X00868Y014801D01*
X008675Y014793D01*
X008672Y014786D01*
X008669Y014779D01*
X008667Y014774D01*
X008666Y014772D01*
Y01477D01*
X008665Y01477D01*
Y014769D01*
X008589Y014787D01*
X008594Y014803D01*
X008601Y014817D01*
X008607Y01483D01*
X008613Y01484D01*
X008619Y014847D01*
X008622Y014851D01*
X008624Y014853D01*
X008626Y014855D01*
X008627Y014857D01*
X008628Y014858D01*
X008628D01*
X008637Y014865D01*
X008646Y014872D01*
X008655Y014877D01*
X008664Y014882D01*
X008674Y014886D01*
X008684Y014889D01*
X008693Y014892D01*
X008702Y014894D01*
X00871Y014896D01*
X008718Y014897D01*
X008725Y014898D01*
X008731Y014899D01*
X008736Y014899D01*
X008743D01*
X008757Y014899D01*
D02*
G37*
G36*
X008124Y014894D02*
X008134Y014893D01*
X008143Y014891D01*
X008152Y014888D01*
X008159Y014885D01*
X008167Y014882D01*
X008173Y014878D01*
X008179Y014874D01*
X008184Y014871D01*
X008189Y014867D01*
X008193Y014864D01*
X008195Y014861D01*
X008198Y014858D01*
X0082Y014856D01*
X008201Y014855D01*
X008202Y014855D01*
X008208Y014845D01*
X008214Y014834D01*
X008219Y014822D01*
X008223Y01481D01*
X008226Y014797D01*
X00823Y014784D01*
X008232Y014771D01*
X008234Y014758D01*
X008235Y014746D01*
X008236Y014735D01*
X008238Y014725D01*
X008238Y014716D01*
X008239Y014709D01*
Y014703D01*
Y014701D01*
Y014699D01*
Y014699D01*
Y014698D01*
X008238Y014678D01*
X008237Y01466D01*
X008235Y014642D01*
X008233Y014627D01*
X008231Y014613D01*
X008228Y0146D01*
X008225Y014589D01*
X008221Y014579D01*
X008219Y014571D01*
X008215Y014563D01*
X008213Y014557D01*
X00821Y014552D01*
X008208Y014549D01*
X008206Y014546D01*
X008205Y014544D01*
X008205Y014544D01*
X008198Y014536D01*
X008191Y01453D01*
X008184Y014524D01*
X008176Y014519D01*
X008169Y014515D01*
X008161Y014512D01*
X008154Y014509D01*
X008147Y014507D01*
X00814Y014504D01*
X008134Y014503D01*
X008128Y014502D01*
X008124Y014502D01*
X00812D01*
X008117Y014501D01*
X008114D01*
X008104Y014502D01*
X008095Y014503D01*
X008086Y014505D01*
X008077Y014507D01*
X008069Y01451D01*
X008062Y014513D01*
X008056Y014517D01*
X00805Y014521D01*
X008045Y014524D01*
X00804Y014528D01*
X008036Y014532D01*
X008033Y014534D01*
X008031Y014536D01*
X008029Y014539D01*
X008028Y01454D01*
X008027Y01454D01*
X008021Y01455D01*
X008015Y014561D01*
X008009Y014573D01*
X008006Y014585D01*
X008002Y014598D01*
X007999Y014611D01*
X007996Y014624D01*
X007994Y014637D01*
X007993Y014649D01*
X007992Y01466D01*
X007991Y014671D01*
X00799Y01468D01*
X007989Y014687D01*
Y014692D01*
Y014695D01*
Y014696D01*
Y014697D01*
Y014697D01*
X00799Y014717D01*
X007991Y014736D01*
X007993Y014752D01*
X007996Y014768D01*
X007998Y014782D01*
X008001Y014795D01*
X008005Y014807D01*
X008008Y014817D01*
X008012Y014826D01*
X008015Y014833D01*
X008018Y01484D01*
X008021Y014846D01*
X008024Y01485D01*
X008026Y014852D01*
X008027Y014854D01*
X008027Y014855D01*
X008033Y014862D01*
X00804Y014868D01*
X008047Y014873D01*
X008054Y014878D01*
X008062Y014882D01*
X008069Y014884D01*
X008076Y014887D01*
X008083Y014889D01*
X008089Y014891D01*
X008095Y014892D01*
X0081Y014893D01*
X008105Y014894D01*
X008109Y014894D01*
X008114D01*
X008124Y014894D01*
D02*
G37*
%LPC*%
G36*
X008117Y014833D02*
X008114D01*
X008109Y014833D01*
X008105Y014832D01*
X008101Y014831D01*
X008098Y014829D01*
X008095Y014827D01*
X008093Y014826D01*
X008092Y014825D01*
X008091Y014825D01*
X008088Y014821D01*
X008084Y014816D01*
X008082Y01481D01*
X008079Y014805D01*
X008077Y014799D01*
X008076Y014795D01*
X008075Y014792D01*
X008074Y014791D01*
Y014791D01*
X008073Y014786D01*
X008072Y01478D01*
X008071Y014772D01*
X00807Y014765D01*
X008069Y01475D01*
X008068Y014735D01*
X008068Y014727D01*
Y01472D01*
X008067Y014714D01*
Y014709D01*
Y014704D01*
Y0147D01*
Y014698D01*
Y014697D01*
Y014685D01*
X008068Y014674D01*
Y014663D01*
X008068Y014654D01*
X008069Y014645D01*
X008069Y014637D01*
X008071Y01463D01*
X008071Y014624D01*
X008072Y014618D01*
X008073Y014614D01*
X008073Y01461D01*
X008074Y014606D01*
X008074Y014604D01*
Y014602D01*
X008075Y014601D01*
Y014601D01*
X008077Y014593D01*
X00808Y014587D01*
X008083Y014581D01*
X008085Y014578D01*
X008087Y014574D01*
X008089Y014572D01*
X008091Y014571D01*
X008091Y01457D01*
X008095Y014568D01*
X008099Y014565D01*
X008103Y014564D01*
X008107Y014563D01*
X008109Y014563D01*
X008112Y014562D01*
X008114D01*
X008119Y014563D01*
X008124Y014563D01*
X008128Y014565D01*
X008131Y014566D01*
X008134Y014568D01*
X008136Y014569D01*
X008137Y01457D01*
X008138Y01457D01*
X008141Y014574D01*
X008144Y014579D01*
X008147Y014585D01*
X00815Y01459D01*
X008152Y014595D01*
X008153Y0146D01*
X008154Y014603D01*
X008154Y014604D01*
X008155Y014609D01*
X008157Y014615D01*
X008158Y014622D01*
X008158Y014629D01*
X008159Y014645D01*
X00816Y01466D01*
X00816Y014667D01*
Y014675D01*
X008161Y014681D01*
Y014686D01*
Y014691D01*
Y014695D01*
Y014697D01*
Y014697D01*
Y01471D01*
X00816Y014721D01*
Y014731D01*
X00816Y014741D01*
X008159Y01475D01*
X008159Y014758D01*
X008158Y014765D01*
X008157Y014771D01*
X008157Y014777D01*
X008156Y014781D01*
X008155Y014785D01*
X008155Y014788D01*
X008154Y014791D01*
Y014793D01*
X008154Y014793D01*
Y014794D01*
X008152Y014802D01*
X008149Y014808D01*
X008147Y014813D01*
X008144Y014818D01*
X008142Y014821D01*
X00814Y014823D01*
X008139Y014824D01*
X008138Y014825D01*
X008134Y014827D01*
X00813Y01483D01*
X008126Y014831D01*
X008122Y014832D01*
X008119Y014833D01*
X008117Y014833D01*
D02*
G37*
%LPD*%
D12*
X028714Y01265D02*
G03*
X028714Y01265I-001614J0D01*
G01*
X020006D02*
G03*
X020006Y01265I-001614J0D01*
G01*
X011257D02*
G03*
X011257Y01265I-001614J0D01*
G01*
X02836Y012492D02*
Y012807D01*
X028202Y01265D02*
X028517D01*
X019651Y012492D02*
Y012807D01*
X019494Y01265D02*
X019809D01*
X010903Y012492D02*
Y012807D01*
X010745Y01265D02*
X01106D01*
M02*
