M48
;Layer_Color=9474304
;FILE_FORMAT=2:4
INCH,LZ
;TYPE=PLATED
T01F00S00C0.0157
T03F00S00C0.0315
T04F00S00C0.0370
T05F00S00C0.0394
T06F00S00C0.0400
T07F00S00C0.1142
T08F00S00C0.1181
%
T01
X017391Y004408
X017427Y005325
X020906Y005028
X02575Y004567
X0296Y004798
X022791Y015121
X01366Y015641
X01326Y015634
X01241Y016715
X011922Y01703
X01147Y016323
X010957Y01548
X005248Y01445
X00575Y012871
X00605Y017318
X015897Y018245
X012235Y005028
X009138Y00545
X009147Y004533
X00605Y018929
X00625Y022992
Y023992
X01405Y0256
X015014Y02296
X016419Y023343
X01501Y021151
X015314Y019396
X016864Y020208
X016964Y021283
X016964Y022176
X01791Y022131
X018434Y022136
X018698Y021086
X0203Y020639
X0203Y020245
X019405Y018982
X017791Y018787
X022791Y018394
X019825Y023567
X016817Y023701
X016714Y027125
X028917Y021005
T03
X017722Y01265
X019061
X026431
X027769
X010312
X008974
X008702Y025876
X009702
X011457Y032835
X027638Y033161
Y031823
X032898Y026484
Y025484
X011457Y034173
T04
X009717Y015929
T05
X032283Y011945
Y012945
Y015063
Y016063
X032283Y018189
X028253Y00315
X027253
X026253
X025253
X019891
X018891
X017891
X016891
X01158
X01058
X00958
X00858
X003071Y010871
Y011871
Y012871
Y013871
Y015929
Y016929
Y017929
Y018929
Y020992
Y021992
Y022992
Y023992
X011621Y023681
Y022681
Y021681
Y024681
X032283Y023386
Y022386
Y021386
X032283Y019189
T06
X020891Y00699
Y00799
Y00899
Y00999
Y01099
Y01199
Y01299
Y01399
X0246Y014
Y013
Y012
Y011
Y01
Y009
Y008
Y007
X0296
Y008
Y009
Y01
Y011
Y012
Y013
Y014
X015891Y01399
Y01299
Y01199
Y01099
Y00999
Y00899
Y00799
Y00699
X01211Y00695
Y00795
Y00895
Y00995
Y01095
Y01195
Y01295
Y01395
X00711
Y01295
Y01195
Y01095
Y00995
Y00895
Y00795
Y00695
T07
X006339Y027284
Y030118
T08
X001911Y001912
X033521Y001912
X001912Y033521
X03359Y033583
M30
